<?xml version="1.0" encoding="UTF-8" standalone="no"?>
<!-- Created with Inkscape (http://www.inkscape.org/) -->

<svg
   xmlns:dc="http://purl.org/dc/elements/1.1/"
   xmlns:cc="http://creativecommons.org/ns#"
   xmlns:rdf="http://www.w3.org/1999/02/22-rdf-syntax-ns#"
   xmlns:svg="http://www.w3.org/2000/svg"
   xmlns="http://www.w3.org/2000/svg"
   xmlns:sodipodi="http://sodipodi.sourceforge.net/DTD/sodipodi-0.dtd"
   xmlns:inkscape="http://www.inkscape.org/namespaces/inkscape"
   width="118.68452mm"
   height="118.68452mm"
   viewBox="0 0 118.68452 118.68452"
   version="1.1"
   id="svg8"
   inkscape:version="0.92.4 (5da689c313, 2019-01-14)"
   sodipodi:docname="character.svg">
  <defs
     id="defs2" />
  <sodipodi:namedview
     id="base"
     pagecolor="#ffffff"
     bordercolor="#666666"
     borderopacity="1.0"
     inkscape:pageopacity="0.0"
     inkscape:pageshadow="2"
     inkscape:zoom="0.35"
     inkscape:cx="222.85714"
     inkscape:cy="-82.857118"
     inkscape:document-units="mm"
     inkscape:current-layer="layer1"
     showgrid="false"
     inkscape:window-width="1920"
     inkscape:window-height="1017"
     inkscape:window-x="1912"
     inkscape:window-y="-8"
     inkscape:window-maximized="1"
     fit-margin-top="0"
     fit-margin-left="0"
     fit-margin-right="0"
     fit-margin-bottom="0" />
  <metadata
     id="metadata5">
    <rdf:RDF>
      <cc:Work
         rdf:about="">
        <dc:format>image/svg+xml</dc:format>
        <dc:type
           rdf:resource="http://purl.org/dc/dcmitype/StillImage" />
        <dc:title></dc:title>
      </cc:Work>
    </rdf:RDF>
  </metadata>
  <g
     inkscape:label="Layer 1"
     inkscape:groupmode="layer"
     id="layer1"
     transform="translate(-46.869049,-8.2261963)">
    <circle
       id="path3713"
       cx="106.21131"
       cy="67.568459"
       r="59.342262"
       style="fill:#ffdd55;stroke-width:0.26458332" />
    <path
       style="fill:#ffdd55;stroke-width:0.26458332"
       id="path3717"
       d="m 72.676456,76.858507 c 1.969333,1.699803 3.764647,3.584308 5.667859,5.353487 1.03279,1.06181 2.084935,2.102347 3.089656,3.189787 0.982056,1.235589 2.033185,2.414162 3.038107,3.63125 0.886812,1.180516 1.953077,2.1965 3.072233,3.152008 1.135123,0.8797 2.223937,1.820767 3.361536,2.697083 1.054833,1.003805 2.203739,1.669976 3.611296,2.021253 1.470181,0.332605 2.915819,0.703458 4.420235,0.872228 1.496972,0.134236 3.001462,0.134538 4.503132,0.139313 1.51138,2.65e-4 3.02276,-0.0043 4.53414,-0.0066 0.75605,-0.0011 1.5121,-0.0016 2.26814,-0.0021 0,0 -9.09094,6.606024 -9.09094,6.606024 v 0 c -0.75585,7.9e-4 -1.511707,10e-4 -2.267564,0.003 -1.51343,0.003 -3.026896,0.009 -4.540308,-0.002 -1.530948,-0.0191 -3.066481,-0.0451 -4.585552,-0.25612 -1.530985,-0.24306 -3.028077,-0.63184 -4.527539,-1.02101 -1.455656,-0.52425 -2.701282,-1.33712 -3.855289,-2.36781 -1.115475,-0.924436 -2.252612,-1.820363 -3.372268,-2.739033 -1.155208,-1.005615 -2.229072,-2.103729 -3.171063,-3.313504 -0.991949,-1.198497 -1.995016,-2.389423 -3.011146,-3.566769 -1.002932,-1.056867 -2.005174,-2.112439 -3.01421,-3.163782 -1.838706,-1.811879 -3.613959,-3.69798 -5.657895,-5.286991 0,0 9.52744,-5.939512 9.52744,-5.939512 z"
       inkscape:connector-curvature="0" />
    <path
       style="fill:#1a1a1a;stroke-width:0.26458332"
       id="path3721"
       d="m 80.372483,87.389831 c 3.43312,2.457022 7.226075,4.372825 10.990181,6.266209 2.87741,1.33064 5.831633,2.430214 8.838976,3.422605 3.65535,1.132713 7.31786,2.23529 10.97211,3.371645 2.27895,0.76806 4.63487,1.10523 7.02496,1.22631 2.34873,0.0703 4.69925,0.0541 7.04876,0.0462 2.24197,-0.0843 4.50781,0.14149 6.73534,-0.15662 1.80543,-0.39499 3.42305,-1.20505 4.98833,-2.156688 -16.03522,10.289588 -8.5741,5.112698 -5.21368,2.126448 1.19767,-1.13329 2.25962,-2.397776 3.27429,-3.694269 0.84785,-1.318336 1.6259,-2.684502 2.39444,-4.051313 0.78235,-1.320474 1.5776,-2.635977 2.39735,-3.93392 0.59338,-0.925875 0.29568,-0.45447 0.89257,-1.414553 0,0 10.27253,-4.524083 10.27253,-4.524083 v 0 c -0.60901,0.946541 -0.31626,0.467635 -0.87854,1.436528 -0.87177,1.243627 -1.54442,2.606628 -2.44277,3.832638 -0.71761,1.431449 -1.61682,2.755855 -2.3242,4.192304 -0.95202,1.409888 -2.08749,2.63316 -3.19895,3.917411 -4.27123,3.903177 -7.88591,6.720937 -13.89343,9.167937 -1.64791,0.88421 -3.39634,1.56985 -5.27132,1.76855 -2.2533,0.1142 -4.51152,0.0162 -6.76692,0.0579 -2.37155,0.006 -4.74541,0.0373 -7.11449,-0.0948 -2.42936,-0.20086 -4.80374,-0.68004 -7.10755,-1.49583 -3.644341,-1.18052 -7.319641,-2.25606 -10.98225,-3.37807 -3.049569,-0.99644 -6.027195,-2.15976 -8.902628,-3.592108 -3.778541,-1.99793 -7.581117,-3.971364 -11.17186,-6.29684 0,0 9.438751,-6.043531 9.438751,-6.043531 z"
       inkscape:connector-curvature="0" />
    <ellipse
       style="fill:#1a1a1a;stroke-width:0.26458332"
       id="path3723"
       cx="137.20535"
       cy="54.339287"
       rx="13.985119"
       ry="9.0714283" />
    <ellipse
       style="fill:#1a1a1a;stroke-width:0.26458332"
       id="path3723-9"
       cx="89.202377"
       cy="54.339287"
       rx="13.985119"
       ry="9.0714283" />
    <path
       style="fill:#ff0000;stroke-width:0.26458332"
       id="path3740"
       d="m 106.77256,110.36928 c -2.23419,1.02243 -4.471,2.02881 -6.69772,3.06516 -1.676427,0.74891 -3.007625,0.87922 -4.791946,0.6144 -1.416296,-0.0787 -2.698638,-0.67441 -4.072553,-0.96132 -1.400329,-0.14567 -2.501064,-0.7321 -3.275203,-1.9015 -0.706179,-1.29762 -0.392208,-2.56238 0.121787,-3.85431 2.936843,-4.13228 8.045614,-6.89696 13.052815,-7.753041 1.5178,-0.194982 3.05171,-0.182803 4.57901,-0.182856 0.25401,7.94e-4 0.50803,0.0019 0.76205,0.0026 0,0 -9.090784,6.605317 -9.090784,6.605317 v 0 c -0.252621,10e-4 -0.505243,0.002 -0.757864,0.003 -1.481333,0.0198 -2.980791,0.0305 -4.426246,0.39501 -0.444426,0.1441 -1.706277,0.75115 -1.304452,0.51278 16.083656,-9.540879 10.609666,-6.59628 7.44963,-4.2002 -0.547344,0.78001 -1.075251,1.82489 -0.670605,2.76769 0.637836,0.90051 1.807657,0.97711 2.814361,1.20717 1.31368,0.35042 2.59897,0.80077 3.97534,0.84244 1.55634,0.0683 3.01054,-0.38914 4.40267,-1.07283 2.22838,-1.04548 4.50626,-1.98366 6.69969,-3.1048 0,0 -8.76998,7.01516 -8.76998,7.01516 z"
       inkscape:connector-curvature="0" />
  </g>
</svg>
